<svg height="1518" width="720" xmlns="http://www.w3.org/2000/svg">
<rect height="1518" fill="#555" width="720"></rect>
<text fill="#7f7" font-family="Courier New" font-size="12" xml:space="preserve">
<tspan x="10" y="26">16 megabytes installed</tspan>
<tspan x="10" y="42"></tspan>
<tspan x="10" y="58">node_modules</tspan>
<tspan x="10" y="74">└─┬ node-jquery@0.1.0 </tspan>
<tspan x="10" y="90">  ├── jQuery@1.7.4 </tspan>
<tspan x="10" y="106">  ├─┬ jsdom@9.12.0 </tspan>
<tspan x="10" y="122">  │ ├── abab@1.0.3 </tspan>
<tspan x="10" y="138">  │ ├── acorn@4.0.11 </tspan>
<tspan x="10" y="154">  │ ├── acorn-globals@3.1.0 </tspan>
<tspan x="10" y="170">  │ ├── array-equal@1.0.0 </tspan>
<tspan x="10" y="186">  │ ├── content-type-parser@1.0.1 </tspan>
<tspan x="10" y="202">  │ ├── cssom@0.3.2 </tspan>
<tspan x="10" y="218">  │ ├── cssstyle@0.2.37 </tspan>
<tspan x="10" y="234">  │ ├─┬ escodegen@1.8.1 </tspan>
<tspan x="10" y="250">  │ │ ├── esprima@2.7.3 </tspan>
<tspan x="10" y="266">  │ │ ├── estraverse@1.9.3 </tspan>
<tspan x="10" y="282">  │ │ ├── esutils@2.0.2 </tspan>
<tspan x="10" y="298">  │ │ ├─┬ optionator@0.8.2 </tspan>
<tspan x="10" y="314">  │ │ │ ├── deep-is@0.1.3 </tspan>
<tspan x="10" y="330">  │ │ │ ├── fast-levenshtein@2.0.6 </tspan>
<tspan x="10" y="346">  │ │ │ ├── levn@0.3.0 </tspan>
<tspan x="10" y="362">  │ │ │ ├── prelude-ls@1.1.2 </tspan>
<tspan x="10" y="378">  │ │ │ ├── type-check@0.3.2 </tspan>
<tspan x="10" y="394">  │ │ │ └── wordwrap@1.0.0 </tspan>
<tspan x="10" y="410">  │ │ └─┬ source-map@0.2.0 </tspan>
<tspan x="10" y="426">  │ │   └── amdefine@1.0.1 </tspan>
<tspan x="10" y="442">  │ ├── html-encoding-sniffer@1.0.1 </tspan>
<tspan x="10" y="458">  │ ├── nwmatcher@1.3.9 </tspan>
<tspan x="10" y="474">  │ ├── parse5@1.5.1 </tspan>
<tspan x="10" y="490">  │ ├─┬ request@2.81.0 </tspan>
<tspan x="10" y="506">  │ │ ├── aws-sign2@0.6.0 </tspan>
<tspan x="10" y="522">  │ │ ├── aws4@1.6.0 </tspan>
<tspan x="10" y="538">  │ │ ├── caseless@0.12.0 </tspan>
<tspan x="10" y="554">  │ │ ├─┬ combined-stream@1.0.5 </tspan>
<tspan x="10" y="570">  │ │ │ └── delayed-stream@1.0.0 </tspan>
<tspan x="10" y="586">  │ │ ├── extend@3.0.0 </tspan>
<tspan x="10" y="602">  │ │ ├── forever-agent@0.6.1 </tspan>
<tspan x="10" y="618">  │ │ ├─┬ form-data@2.1.4 </tspan>
<tspan x="10" y="634">  │ │ │ └── asynckit@0.4.0 </tspan>
<tspan x="10" y="650">  │ │ ├─┬ har-validator@4.2.1 </tspan>
<tspan x="10" y="666">  │ │ │ ├─┬ ajv@4.11.7 </tspan>
<tspan x="10" y="682">  │ │ │ │ ├── co@4.6.0 </tspan>
<tspan x="10" y="698">  │ │ │ │ └─┬ json-stable-stringify@1.0.1 </tspan>
<tspan x="10" y="714">  │ │ │ │   └── jsonify@0.0.0 </tspan>
<tspan x="10" y="730">  │ │ │ └── har-schema@1.0.5 </tspan>
<tspan x="10" y="746">  │ │ ├─┬ hawk@3.1.3 </tspan>
<tspan x="10" y="762">  │ │ │ ├── boom@2.10.1 </tspan>
<tspan x="10" y="778">  │ │ │ ├── cryptiles@2.0.5 </tspan>
<tspan x="10" y="794">  │ │ │ ├── hoek@2.16.3 </tspan>
<tspan x="10" y="810">  │ │ │ └── sntp@1.0.9 </tspan>
<tspan x="10" y="826">  │ │ ├─┬ http-signature@1.1.1 </tspan>
<tspan x="10" y="842">  │ │ │ ├── assert-plus@0.2.0 </tspan>
<tspan x="10" y="858">  │ │ │ ├─┬ jsprim@1.4.0 </tspan>
<tspan x="10" y="874">  │ │ │ │ ├── assert-plus@1.0.0 </tspan>
<tspan x="10" y="890">  │ │ │ │ ├── extsprintf@1.0.2 </tspan>
<tspan x="10" y="906">  │ │ │ │ ├── json-schema@0.2.3 </tspan>
<tspan x="10" y="922">  │ │ │ │ └── verror@1.3.6 </tspan>
<tspan x="10" y="938">  │ │ │ └─┬ sshpk@1.13.0 </tspan>
<tspan x="10" y="954">  │ │ │   ├── asn1@0.2.3 </tspan>
<tspan x="10" y="970">  │ │ │   ├── assert-plus@1.0.0 </tspan>
<tspan x="10" y="986">  │ │ │   ├── bcrypt-pbkdf@1.0.1 </tspan>
<tspan x="10" y="1002">  │ │ │   ├─┬ dashdash@1.14.1 </tspan>
<tspan x="10" y="1018">  │ │ │   │ └── assert-plus@1.0.0 </tspan>
<tspan x="10" y="1034">  │ │ │   ├── ecc-jsbn@0.1.1 </tspan>
<tspan x="10" y="1050">  │ │ │   ├─┬ getpass@0.1.6 </tspan>
<tspan x="10" y="1066">  │ │ │   │ └── assert-plus@1.0.0 </tspan>
<tspan x="10" y="1082">  │ │ │   ├── jodid25519@1.0.2 </tspan>
<tspan x="10" y="1098">  │ │ │   ├── jsbn@0.1.1 </tspan>
<tspan x="10" y="1114">  │ │ │   └── tweetnacl@0.14.5 </tspan>
<tspan x="10" y="1130">  │ │ ├── is-typedarray@1.0.0 </tspan>
<tspan x="10" y="1146">  │ │ ├── isstream@0.1.2 </tspan>
<tspan x="10" y="1162">  │ │ ├── json-stringify-safe@5.0.1 </tspan>
<tspan x="10" y="1178">  │ │ ├─┬ mime-types@2.1.15 </tspan>
<tspan x="10" y="1194">  │ │ │ └── mime-db@1.27.0 </tspan>
<tspan x="10" y="1210">  │ │ ├── oauth-sign@0.8.2 </tspan>
<tspan x="10" y="1226">  │ │ ├── performance-now@0.2.0 </tspan>
<tspan x="10" y="1242">  │ │ ├── qs@6.4.0 </tspan>
<tspan x="10" y="1258">  │ │ ├── safe-buffer@5.0.1 </tspan>
<tspan x="10" y="1274">  │ │ ├── stringstream@0.0.5 </tspan>
<tspan x="10" y="1290">  │ │ ├── tunnel-agent@0.6.0 </tspan>
<tspan x="10" y="1306">  │ │ └── uuid@3.0.1 </tspan>
<tspan x="10" y="1322">  │ ├── sax@1.2.2 </tspan>
<tspan x="10" y="1338">  │ ├── symbol-tree@3.2.2 </tspan>
<tspan x="10" y="1354">  │ ├─┬ tough-cookie@2.3.2 </tspan>
<tspan x="10" y="1370">  │ │ └── punycode@1.4.1 </tspan>
<tspan x="10" y="1386">  │ ├── webidl-conversions@4.0.1 </tspan>
<tspan x="10" y="1402">  │ ├─┬ whatwg-encoding@1.0.1 </tspan>
<tspan x="10" y="1418">  │ │ └── iconv-lite@0.4.13 </tspan>
<tspan x="10" y="1434">  │ ├─┬ whatwg-url@4.7.0 </tspan>
<tspan x="10" y="1450">  │ │ ├── tr46@0.0.3 </tspan>
<tspan x="10" y="1466">  │ │ └── webidl-conversions@3.0.1 </tspan>
<tspan x="10" y="1482">  │ └── xml-name-validator@2.0.1 </tspan>
<tspan x="10" y="1498">  └── xmlhttprequest@1.8.0</tspan>
</text>
</svg>
